<mxfile host="app.diagrams.net" modified="2021-01-02T14:07:44.680Z" agent="5.0 (Windows NT 10.0; Win64; x64) AppleWebKit/537.36 (KHTML, like Gecko) Chrome/87.0.4280.88 Safari/537.36" etag="RxaPE5wb4hgttgHAJmDm" version="14.1.7" type="github">
  <diagram id="UkEdO78DAO37uY5rxgCi" name="Page-1">
    <mxGraphModel dx="898" dy="511" grid="1" gridSize="10" guides="1" tooltips="1" connect="1" arrows="1" fold="1" page="1" pageScale="1" pageWidth="1100" pageHeight="850" math="0" shadow="0">
      <root>
        <mxCell id="0" />
        <mxCell id="1" parent="0" />
        <mxCell id="asSBpoJGRj7BXhes8iBR-1" value="&lt;b&gt;نظرسنجی&lt;/b&gt;" style="shape=note;whiteSpace=wrap;html=1;size=14;verticalAlign=top;align=left;spacingTop=-6;rounded=0;shadow=0;comic=0;labelBackgroundColor=none;strokeWidth=1;fontFamily=Verdana;fontSize=12" parent="1" vertex="1">
          <mxGeometry width="100" height="35" as="geometry" />
        </mxCell>
        <mxCell id="asSBpoJGRj7BXhes8iBR-2" value="&lt;b&gt;&lt;font&gt;&lt;font style=&quot;font-size: 18px&quot;&gt;سیستم &lt;/font&gt;&lt;br&gt;&lt;/font&gt;&lt;/b&gt;" style="shape=umlLifeline;perimeter=lifelinePerimeter;whiteSpace=wrap;html=1;container=1;collapsible=0;recursiveResize=0;outlineConnect=0;" parent="1" vertex="1">
          <mxGeometry x="40" y="80" width="100" height="440" as="geometry" />
        </mxCell>
        <mxCell id="asSBpoJGRj7BXhes8iBR-3" value="" style="html=1;points=[];perimeter=orthogonalPerimeter;rounded=0;shadow=0;comic=0;labelBackgroundColor=none;strokeWidth=1;fontFamily=Verdana;fontSize=12;align=center;" parent="asSBpoJGRj7BXhes8iBR-2" vertex="1">
          <mxGeometry x="45" y="80" width="10" height="340" as="geometry" />
        </mxCell>
        <mxCell id="asSBpoJGRj7BXhes8iBR-5" value="" style="shape=umlLifeline;participant=umlActor;perimeter=lifelinePerimeter;whiteSpace=wrap;html=1;container=1;collapsible=0;recursiveResize=0;verticalAlign=top;spacingTop=36;outlineConnect=0;" parent="1" vertex="1">
          <mxGeometry x="270" y="80" width="20" height="440" as="geometry" />
        </mxCell>
        <mxCell id="asSBpoJGRj7BXhes8iBR-6" value="" style="html=1;points=[];perimeter=orthogonalPerimeter;rounded=0;shadow=0;comic=0;labelBackgroundColor=none;strokeWidth=1;fontFamily=Verdana;fontSize=12;align=center;" parent="asSBpoJGRj7BXhes8iBR-5" vertex="1">
          <mxGeometry x="5" y="80" width="10" height="270" as="geometry" />
        </mxCell>
        <mxCell id="asSBpoJGRj7BXhes8iBR-7" value="&lt;b&gt;&lt;font style=&quot;font-size: 18px&quot;&gt;خریدار&lt;/font&gt;&lt;/b&gt;" style="text;html=1;align=center;verticalAlign=middle;resizable=0;points=[];autosize=1;" parent="1" vertex="1">
          <mxGeometry x="250" y="50" width="60" height="20" as="geometry" />
        </mxCell>
        <mxCell id="asSBpoJGRj7BXhes8iBR-10" value="اعلان برای ثبت نظر" style="html=1;verticalAlign=bottom;endArrow=block;entryX=0.009;entryY=0.181;entryDx=0;entryDy=0;entryPerimeter=0;exitX=1.045;exitY=0.148;exitDx=0;exitDy=0;exitPerimeter=0;" parent="1" source="asSBpoJGRj7BXhes8iBR-3" target="asSBpoJGRj7BXhes8iBR-6" edge="1">
          <mxGeometry x="0.0595" y="10" width="80" relative="1" as="geometry">
            <mxPoint x="100" y="210" as="sourcePoint" />
            <mxPoint x="260" y="210" as="targetPoint" />
            <mxPoint as="offset" />
          </mxGeometry>
        </mxCell>
        <mxCell id="asSBpoJGRj7BXhes8iBR-11" value="&lt;font style=&quot;font-size: 18px&quot;&gt;&lt;b&gt;خریدار&lt;/b&gt;&lt;/font&gt;" style="shape=umlLifeline;perimeter=lifelinePerimeter;whiteSpace=wrap;html=1;container=1;collapsible=0;recursiveResize=0;outlineConnect=0;rounded=1;shadow=0;comic=0;labelBackgroundColor=none;strokeWidth=1;fontFamily=Verdana;fontSize=12;align=center;" parent="1" vertex="1">
          <mxGeometry x="410" y="80" width="100" height="440" as="geometry" />
        </mxCell>
        <mxCell id="asSBpoJGRj7BXhes8iBR-12" value="" style="html=1;points=[];perimeter=orthogonalPerimeter;rounded=0;shadow=0;comic=0;labelBackgroundColor=none;strokeWidth=1;fontFamily=Verdana;fontSize=12;align=center;" parent="asSBpoJGRj7BXhes8iBR-11" vertex="1">
          <mxGeometry x="45" y="120" width="10" height="130" as="geometry" />
        </mxCell>
        <mxCell id="asSBpoJGRj7BXhes8iBR-13" value="(ثبت نظر (نوشته، امتیاز" style="html=1;verticalAlign=bottom;endArrow=block;exitX=1.027;exitY=0.294;exitDx=0;exitDy=0;exitPerimeter=0;entryX=-0.173;entryY=0.309;entryDx=0;entryDy=0;entryPerimeter=0;" parent="1" target="asSBpoJGRj7BXhes8iBR-12" edge="1" source="asSBpoJGRj7BXhes8iBR-6">
          <mxGeometry x="0.0595" y="10" width="80" relative="1" as="geometry">
            <mxPoint x="290" y="240" as="sourcePoint" />
            <mxPoint x="450" y="240" as="targetPoint" />
            <mxPoint as="offset" />
          </mxGeometry>
        </mxCell>
        <mxCell id="asSBpoJGRj7BXhes8iBR-14" value="&lt;font style=&quot;font-size: 18px&quot;&gt;&lt;b&gt;نظر&lt;/b&gt;&lt;/font&gt;" style="shape=umlLifeline;perimeter=lifelinePerimeter;whiteSpace=wrap;html=1;container=1;collapsible=0;recursiveResize=0;outlineConnect=0;rounded=1;shadow=0;comic=0;labelBackgroundColor=none;strokeWidth=1;fontFamily=Verdana;fontSize=12;align=center;" parent="1" vertex="1">
          <mxGeometry x="590" y="260" width="100" height="260" as="geometry" />
        </mxCell>
        <mxCell id="asSBpoJGRj7BXhes8iBR-15" value="" style="html=1;points=[];perimeter=orthogonalPerimeter;rounded=0;shadow=0;comic=0;labelBackgroundColor=none;strokeWidth=1;fontFamily=Verdana;fontSize=12;align=center;" parent="asSBpoJGRj7BXhes8iBR-14" vertex="1">
          <mxGeometry x="45" y="80" width="10" height="60" as="geometry" />
        </mxCell>
        <mxCell id="asSBpoJGRj7BXhes8iBR-16" value="ساخت کلاس نظر" style="html=1;verticalAlign=bottom;endArrow=block;entryX=-0.007;entryY=0.078;entryDx=0;entryDy=0;entryPerimeter=0;exitX=0.991;exitY=0.611;exitDx=0;exitDy=0;exitPerimeter=0;" parent="1" source="asSBpoJGRj7BXhes8iBR-12" edge="1" target="asSBpoJGRj7BXhes8iBR-14">
          <mxGeometry x="0.0595" y="10" width="80" relative="1" as="geometry">
            <mxPoint x="480" y="280" as="sourcePoint" />
            <mxPoint x="570" y="280" as="targetPoint" />
            <mxPoint as="offset" />
          </mxGeometry>
        </mxCell>
        <mxCell id="asSBpoJGRj7BXhes8iBR-21" value="&lt;b&gt;&amp;nbsp;پیام تایید&lt;br&gt;&lt;/b&gt;" style="html=1;verticalAlign=bottom;endArrow=open;dashed=1;endSize=8;exitX=0.082;exitY=0.3;exitDx=0;exitDy=0;exitPerimeter=0;entryX=1.045;entryY=0.587;entryDx=0;entryDy=0;entryPerimeter=0;" parent="1" source="asSBpoJGRj7BXhes8iBR-15" edge="1" target="asSBpoJGRj7BXhes8iBR-3">
          <mxGeometry x="0.0181" y="-9" relative="1" as="geometry">
            <mxPoint x="907.5" y="360" as="sourcePoint" />
            <mxPoint x="100" y="359" as="targetPoint" />
            <mxPoint as="offset" />
          </mxGeometry>
        </mxCell>
        <mxCell id="asSBpoJGRj7BXhes8iBR-22" value="پیام ثبت موفقیت آمیز نظر" style="html=1;verticalAlign=bottom;endArrow=block;entryX=-0.136;entryY=0.887;entryDx=0;entryDy=0;entryPerimeter=0;exitX=1.191;exitY=0.704;exitDx=0;exitDy=0;exitPerimeter=0;" parent="1" edge="1" target="asSBpoJGRj7BXhes8iBR-6" source="asSBpoJGRj7BXhes8iBR-3">
          <mxGeometry x="0.0595" y="10" width="80" relative="1" as="geometry">
            <mxPoint x="100" y="400" as="sourcePoint" />
            <mxPoint x="260" y="400" as="targetPoint" />
            <mxPoint as="offset" />
          </mxGeometry>
        </mxCell>
      </root>
    </mxGraphModel>
  </diagram>
</mxfile>
